
<global>
ampeg_release=0.50
xf_cccurve=gain
xfin_hicc1=127
xfout_hicc1=127
xfout_locc1=127
</global>

<group>
group_label=Group_0-45
lpc_hicc1=42
lpc_locc1=0

<region>
hikey=g#6
hivel=127
lokey=g6
lovel=1
lpc=/PA+QtglBsI7xolB0GWkQKx7ZcHqPPpBnbreP4xf1UCC8Y9B5TxIv5yxPkGqBPe/JXWVQcC6o8Gm6zLBrbHDQaxDMMHBN0ZBob5gQAUWisEWN+RAKoEJwZ/oOcBIA4c/
lpc_rms=-20.25
pitch_keycenter=G#6
sample=Flute_trill_semitone_PP_G#6.opus
</region>

<region>
hikey=g#5
hivel=127
lokey=g5
lovel=1
lpc=r0LOQXDsK8L88OBBenkIwXaQw79LS2BBsXQ2wZnGI0CZZldA/PdlwNwJl0CNj+e/FVgQP4yYMUAjoyPAgjxHP7IixkDajAbBNhP/QC7Ym8DAISVA9qTTP83hCUASTyPA
lpc_rms=-31.88
pitch_keycenter=g#5
sample=Flute_trill_semitone_PP_G#5.opus
</region>

<region>
hikey=g#4
hivel=127
lokey=g4
lovel=1
lpc=i7g2QnaN88LeJwJDbmCbwsJiyUF5EpVBomAMwgasm0H0tyu//GQEwT5+I0G4mTLBUb8TQcEaTsBOexFAXEaAwDPcY0DwNNjAPPEuQUDwrsBwJZG/LHp/Pua4Mj9n8DM/
lpc_rms=-35.80
pitch_keycenter=g#4
sample=Flute_trill_semitone_PP_G#4.opus
</region>

<region>
hikey=f#6
hivel=127
lokey=f6
lovel=1
lpc=yEf3QbpByMGBg1ZBp+1hwBEsDMDil69BB8unwBqO+EC2kQ9Bw+nVv2pDVkEEi6s+FEX2QJ4oj0C2k7NA53YcwWQYBECt9jdBXxqQP7kp+UBgWpbALe3Kv1Pa7j9i3he/
lpc_rms=-23.73
pitch_keycenter=f#6
sample=Flute_trill_semitone_PP_F#6.opus
</region>

<region>
hikey=f#5
hivel=127
lokey=f5
lovel=1
lpc=aEuPQUyq6sEmH5ZBonjRwJsMmD8C9rNAgSSrwKXnaUATtUc/sJ2CwAm+okDd4JnAxyvAQLC1O8Cq5Ik/cbgfP4nfWb/JthJA0O8TvxFm/r9Nc55APqRJwAwuoD/0wr8/
lpc_rms=-37.53
pitch_keycenter=f#5
sample=Flute_trill_semitone_PP_F#5.opus
</region>

<region>
hikey=f#4
hivel=127
lokey=f4
lovel=1
lpc=yvRwQqIPJsM0iDdDPhjTwoOPA0JPrtRAc8OEwSl6r8DjdcVBf3qJwbA580AiJy3BlQ5OQRxGScHme0BBAcYQwT7/2EBkBg7BQkI9Qb/zncBsO73A7QM2Qfz+PsHvB89A
lpc_rms=-34.91
pitch_keycenter=f#4
sample=Flute_trill_semitone_PP_F#4.opus
</region>

<region>
hikey=e6
hivel=127
lokey=d#6
lovel=1
lpc=gD07QsknJsLDh6hBlf3kwIoIasCnmeRBW7MhwYroOEE2KkRBqcfDP4nYHkGiNgE/nec0QSL8z0CdMvNAZ3l6QATDAkHRG5DBTwsPQZiWNkFanixAYABMQVCmH8GE+SxA
lpc_rms=-22.14
pitch_keycenter=e6
sample=Flute_trill_semitone_PP_E6.opus
</region>

<region>
hikey=e5
hivel=127
lokey=d#5
lovel=1
lpc=aTbrQfikgMLz6WRCNk2wwUgLRcGr6v5BhWKiwfhO7L4dfDxBatotwVvqYkDOnqS9IXOVQAb8/sBvwwpBlxepwDvA/D4+jV5Amfc3PzNJocCm5KJAOY19v0pnksC76LFA
lpc_rms=-34.75
pitch_keycenter=e5
sample=Flute_trill_semitone_PP_E5.opus
</region>

<region>
hikey=e4
hivel=127
lokey=d#4
lovel=1
lpc=QozCQpKQisMPzpdDfd8dwyT1+kGtVnRBOT20wDPZusEoEbJBst5gwGjrrL5HI1nAsikWQcNPm8GG3ZBBGcQ5wXWuLUEGFxLBKY1BQVg888DsQxzB1b/RQRcr9cHOGWlB
lpc_rms=-33.18
pitch_keycenter=e4
sample=Flute_trill_semitone_PP_E4.opus
</region>

<region>
hikey=d6
hivel=127
lokey=c#6
lovel=1
lpc=hEa5QZ4V0sEoCYpBsP/9wCtwoz7d0UlBiTIKwdjT+UAvXTM/ynxcQGPkSkCIRvE+8YZ1Pqi7wUATJRg/MU5JQEfXhkC6NC/AsrPZQH5ry8DKo0e+3TJOQOB3S0DpNAZA
lpc_rms=-30.86
pitch_keycenter=d6
sample=Flute_trill_semitone_PP_D6.opus
</region>

<region>
hikey=d5
hivel=127
lokey=c#5
lovel=1
lpc=/YkTQk3TtsIpr6hCF0CvwTW9ucGJeNRBF/j2wEWl5L5GzBrAoyAzwPDZD0F8ewLBWQQYQb/EJcElovFAW/x8wKqeFj6W2/o/SSkRP/YlND/Dq6w/9tpywHLHlr8hXWNA
lpc_rms=-35.54
pitch_keycenter=d5
sample=Flute_trill_semitone_PP_D5.opus
</region>

<region>
hikey=d4
hivel=127
lokey=c#4
lovel=1
lpc=rdM5Qteh2cKH47tCbDM5wlaFzEF4albAraoAwZcrtsCcdStB6yT7wNNX20DTwYTAOaM6QO1NjsD31iRA0yhYP2Q2d8Dkr09AfsKVPy94N75HO92/yoKqvhob+z7o/6M/
lpc_rms=-41.32
pitch_keycenter=d4
sample=Flute_trill_semitone_PP_D4.opus
</region>

<region>
hikey=c6
hivel=127
lokey=b5
lovel=1
lpc=tkSmQTCg6ME/83hBJLJgP45238BWYUBB3/v7wNbXkUC26g1AyDP6vzRJzkBPu5nAgk7vPxaaj0B0CifAVaWZQOubYr+SgALAXaLWQI8NJ8BmZsc/wwczvlVt3cDgFfVA
lpc_rms=-31.43
pitch_keycenter=c6
sample=Flute_trill_semitone_PP_C6.opus
</region>

<region>
hikey=c5
hivel=127
lokey=b4
lovel=1
lpc=flQtQsCo68JP0gJDxv2Owixc4j8NGSNCrU4OwvLJlEB+bkVBHuxuwcXjMkFx0LvA0RLuQCP9LsEFFT1B0CcmwZr7F0EY0unALdS6QIFI+8CU6rFAg2H6P7HfRcAiX6M/
lpc_rms=-36.06
pitch_keycenter=c5
sample=Flute_trill_semitone_PP_C5.opus
</region>

<region>
hivel=127
key=c4
lovel=1
lpc=O/YNQp2By8ICaflC25SwwmUBHUKlI37A+JpYwdpuw0Dw9P9Aod7YwCjs2T8yUy/AS0VqQCRRtMB/xgtBk3S/wONtOj9VIz/AsH2uQL+zXD8BHK7Au7tpQPpg379P84A/
lpc_rms=-40.85
sample=Flute_trill_semitone_PP_C4.opus
</region>

<region>
hikey=a#5
hivel=127
lokey=a5
lovel=1
lpc=rPoVQsn3YcJPKb5B1oodwJEgEL9pGX9BbKIawcuFLj8fH25AG0svweAWHEEuHbS+DUQKQZBIosAn64LAcXaavl6IS0BvyCdAvajMQMNcYMCLeLa+AiRLwFyvLMBlQJ1A
lpc_rms=-27.44
pitch_keycenter=a#5
sample=Flute_trill_semitone_PP_A#5.opus
</region>

<region>
hikey=a#4
hivel=127
lokey=a4
lovel=1
lpc=pc3SQlS4jMMrJIRDhRimwvFdt8H7o8hB9FT5QNWWjMEELhdBwLfkwQrlKkKjqwbCo74HQoVoBsKaxnFBUCYSwcUBj0GarCbBGi8IQbE7i8Gh9ZBBrlVswU/cAEHNArO+
lpc_rms=-29.26
pitch_keycenter=a#4
sample=Flute_trill_semitone_PP_A#4.opus
</region>
</group>

<group>
group_label=Group_46-90
lpc_hicc1=84
lpc_locc1=43

<region>
hikey=g#6
hivel=127
lokey=g6
lovel=1
lpc=UjRNQq4zO8JamdZB/L6oQJGZXcFh3DJCuBl2wXz/6DxfeetBKv/NwMf1kkEJiKU+AoIiQRPhkME+FAnBdyPAQeFCMMF24t9APV2SwD+abMHULmlBr6LTwN3F3sDpno/A
lpc_rms=-13.69
pitch_keycenter=G#6
sample=Flute_trill_semitone_MF_G#6.opus
</region>

<region>
hikey=g#5
hivel=127
lokey=g5
lovel=1
lpc=6RTCQb2CK8J/fARCHvkLwUfVhcAPyEZBcKM1wR16AEHiTh5A69vdwKXu+0DTObHA8Z0eQU3FDsH1M49AnaC9QK/77cCn6qBA8N7SPrlrwr8aAL1AQ3KawO0mkUBuqQm/
lpc_rms=-23.51
pitch_keycenter=g#5
sample=Flute_trill_semitone_MF_G#5.opus
</region>

<region>
hikey=g#4
hivel=127
lokey=g4
lovel=1
lpc=NnwBQqCAo8KuPJpCRkb4wWIfzcBjZNlBwGy+wd8uzkByyzlAOHm1wJ3O5kBr1kzAJ/R9wD64rUB2ZFjA7zYPwJCy2kBN7orAp/GzQKCp0cCmFkBAG2ERPyIdl8CDmX1A
lpc_rms=-27.11
pitch_keycenter=g#4
sample=Flute_trill_semitone_MF_G#4.opus
</region>

<region>
hikey=f#6
hivel=127
lokey=f6
lovel=1
lpc=S1X+QRKQF8LmQvBBD1GvwE2U48BFSOJBU1VkwUIpN0EjfDtBVc9pwJ7AZEFkuOU+fdgJQasgmkCkfxhBrrg4wfttlEB8i35Bj+0pwaRMWkGzaxXAvx89wBsxykCLOSXA
lpc_rms=-16.69
pitch_keycenter=f#6
sample=Flute_trill_semitone_MF_F#6.opus
</region>

<region>
hikey=f#5
hivel=127
lokey=f5
lovel=1
lpc=xqWlQZKzIMIMBQJCG5w+wUs+kb9lOk1BqTh6wYJKF0F8KmI/E0fCwJ2EE0G8OQ/BBzThQONWD8C54wZAN7tbwKHSmkBtKgLATVoVQFSLa8CqonFAwGCKv9J4lD8oun4/
lpc_rms=-25.91
pitch_keycenter=f#5
sample=Flute_trill_semitone_MF_F#5.opus
</region>

<region>
hikey=f#4
hivel=127
lokey=f4
lovel=1
lpc=UlIAQjChrML4zrZC0TVbwnbhkkGwY4pBTUUFwhE6tUHahQ7BBMFnvxyl8EBcGxjBJf6sQIpCwr1CU0FAyofXwPISk0DvMrPAk+MIQQS8psAQHzNAgmgWwBQBCr9Nc50/
lpc_rms=-30.31
pitch_keycenter=f#4
sample=Flute_trill_semitone_MF_F#4.opus
</region>

<region>
hikey=e6
hivel=127
lokey=d#6
lovel=1
lpc=aJz/QZKUFMK3p+FBbMzvwAIY98DbRr9BmoQRwdjSBkG2eeNAqYG9vwsZNkHIs2a/in4OQaom/T5sjeRAEPx3QHYn8EAndZDB8nxxQSg6LUB9IpLAOD+CQc4wFcHCXUdA
lpc_rms=-17.42
pitch_keycenter=e6
sample=Flute_trill_semitone_MF_E6.opus
</region>

<region>
hikey=e5
hivel=127
lokey=d#5
lovel=1
lpc=OoXnQc/SgsIhcWFCbLAzwWIdxsHxGghCjJiRwTSV+D+VG5hA4ZmjwB+kj0CL3JfANIfAQL/dMcBz3wY+Lg4GQN48gsBusKRAf2yEvt8qIsAEg1JAdTbpv+12QMAJAJpA
lpc_rms=-25.06
pitch_keycenter=e5
sample=Flute_trill_semitone_MF_E5.opus
</region>

<region>
hikey=e4
hivel=127
lokey=d#4
lovel=1
lpc=VhwnQmAd4sLaWOxC7yl/wtpoZkFMdIpBbvSmwXsMkUDh5WxApU+ewPpzAkEyajDBi641QZOVMcEq2HBBlAyHwYiT0EDz8WRAIa5iwNkhnED/bczAtE6FQP98UcCmUPk/
lpc_rms=-29.68
pitch_keycenter=e4
sample=Flute_trill_semitone_MF_E4.opus
</region>

<region>
hikey=d6
hivel=127
lokey=c#6
lovel=1
lpc=ewaJQVZvpcGPYVFBQ4s4wDDUwb94ZvxAN3plwJ0qQ0B92a9AMJSMwOtRvUDNa4q+UhViQIShEz77Hfs/kpLFP8hFXEAI5Qa/iht3QPKMvMCzJj0/qdKiQKI4gr8XIQBA
lpc_rms=-25.11
pitch_keycenter=d6
sample=Flute_trill_semitone_MF_D6.opus
</region>

<region>
hikey=d5
hivel=127
lokey=c#5
lovel=1
lpc=/iKpQTkPOMLNAPBBN3a3P2vwG8FFdD9BFXZLwUKkl0B0A5tAbBT4wG9niECS/zHAKTJ3QF/PCb/7xCy/rfaPv7p6IECiF33AlGgPQLZkxD9+Mg8/029OP/hN0MAkDpxA
lpc_rms=-24.22
pitch_keycenter=d5
sample=Flute_trill_semitone_MF_D5.opus
</region>

<region>
hikey=d4
hivel=127
lokey=c#4
lovel=1
lpc=fHrXQfihjsLLPppCsThFwm/jhkHNkCVBA79ewUVapz8hWr9AxxojwZc4EEGH9FzA8fRVQPg8tcCSoOBAivMGwe6o5UAu1IvAqfGJQLpx6r8pO6S/LE8tPUFDrT8zMii/
lpc_rms=-34.44
pitch_keycenter=d4
sample=Flute_trill_semitone_MF_D4.opus
</region>

<region>
hikey=c6
hivel=127
lokey=b5
lovel=1
lpc=GeiBQWJ0x8Hrh5hB4fO3wByEw8DT+4tB1hlcwfN2oEBpUs1AO0T1wJERDkH35m7AGt+PPuvqi0DUfgzAxBoyQGFq6D94ciPAN4KPQDEdjD6WWXO/0Piov/ZMkL+3m3NA
lpc_rms=-24.40
pitch_keycenter=c6
sample=Flute_trill_semitone_MF_C6.opus
</region>

<region>
hikey=c5
hivel=127
lokey=b4
lovel=1
lpc=RdIIQtpgpcL7ho9CXCKIwXOpf8G5cnFBLyYLwBTWWsABLP8/Ao/9v3kTpkBmL/3A2+AtQTFzRsHlUxhB3HLAv9nSl7+wHfo/kmKOwF3aC7+818dAmBI+wLNWPsDJMWxA
lpc_rms=-25.35
pitch_keycenter=c5
sample=Flute_trill_semitone_MF_C5.opus
</region>

<region>
hivel=127
key=c4
lovel=1
lpc=cj58QaAzC8Iw995BNus8wblFkD6AS+5AHqKewJ9jA0BbiwrA8MTev6P4YEAxhz3AWC9lQP5pC8B3Zx4/mlgXvhHMrr+7K48/fWmCP/Ynir9Bxp0/3Yabv9ZLZjyxiJI+
lpc_rms=-35.78
sample=Flute_trill_semitone_MF_C4.opus
</region>

<region>
hikey=a#5
hivel=127
lokey=a5
lovel=1
lpc=siMwQgHBo8JTMZVCE/kfwkfTs0C53ARCcmIjwmmkpkEXwzq/qgTXwJeyqkFSK8TBtq1lQa6mjMBHfg1BwHo3wFc6HUBNBj3BYHZWQaxvdD/TSMG/0ulhPxs2lsA9uZ8+
lpc_rms=-16.35
pitch_keycenter=a#5
sample=Flute_trill_semitone_MF_A#5.opus
</region>

<region>
hikey=a#4
hivel=127
lokey=a4
lovel=1
lpc=7Ag2QrCL6sIfULtCXGKJQJPFS8JUChhCdz4iwe1Ps8AN0CZAHYfewM+UnEEwoYjBhWzTQIutWsD1t5NAlTK2wELOKUDCLaRA5it3wDD3W8BhFo5AnWvkv/S5dr9mq+E/
lpc_rms=-21.02
pitch_keycenter=a#4
sample=Flute_trill_semitone_MF_A#4.opus
</region>
</group>

<group>
group_label=Group_91-127
lpc_hicc1=127
lpc_locc1=85

<region>
hikey=g#6
hivel=127
lokey=g6
lovel=1
lpc=hG8lQunLPMKA+v9BgsulwGbSx8BxyhRCgrG2wToYa0GyB3xBZDbgwFnBlkGViqnAAmpbQdr2YMEzWBvABu3TQTyoT8EoQx5B2sT7vwygJcFJ72xBTCPmwDm4YMCAtThA
lpc_rms=-11.55
pitch_keycenter=G#6
sample=Flute_trill_semitone_FF_G#6.opus
</region>

<region>
hikey=g#5
hivel=127
lokey=g5
lovel=1
lpc=XYxQQbl7vcFEFq1BHyAcwTSbTb7evBxBZ3AcwfN0r0DTIdw+AIj+vxjBY0DgRSm/k3NEP60sp7/C/g5AoU+QP8HA+7537KY+Cp6iP6Tlz78iRH9Aj1YewCCnEkBxiNi9
lpc_rms=-23.37
pitch_keycenter=g#5
sample=Flute_trill_semitone_FF_G#5.opus
</region>

<region>
hikey=g#4
hivel=127
lokey=g4
lovel=1
lpc=cvrIQdYdfMIsOGBCCw9ywV+UP8GeRotBYokWwZVeBj/wYRJAS9ViwDBFe0AOcZDA342hQOQFYsCRhYs+OrzeP76zGz/yDjHAZ3VqQBouIcD03gW/hs8aQN2NJcBbdqo/
lpc_rms=-21.85
pitch_keycenter=g#4
sample=Flute_trill_semitone_FF_G#4.opus
</region>

<region>
hikey=f#6
hivel=127
lokey=f6
lovel=1
lpc=7DrwQZxUIcKCOgVC0nASwdaaz8B9a9ZBB0ZdwVbcIkG1zeNAw685wA2mQkFkrAG/aN65QAr5p0BxqU5AJNBtwcW0nEG6IRbAZyAFwA3bK0FiPenA5UmMvnzolUDc5x/A
lpc_rms=-10.90
pitch_keycenter=f#6
sample=Flute_trill_semitone_FF_F#6.opus
</region>

<region>
hikey=f#5
hivel=127
lokey=f5
lovel=1
lpc=SeNIQY6VqsFkO1RBoB4UP5DHwMDtL+ZAYmGKwJny8T926lNAJa25wD+8l0DIPSbA1SdTQE9oBb/VqeW/qHcHQGTCij+3G5m/rVm9Py+xEcBeTl5A7YVmv7VIcr8CLg9A
lpc_rms=-24.96
pitch_keycenter=f#5
sample=Flute_trill_semitone_FF_F#5.opus
</region>

<region>
hikey=f#4
hivel=127
lokey=f4
lovel=1
lpc=mkVmQXlt/MH/DLpBBlr5wNg5tT99gqxAiOvRwANv0z9Enj9AKS/gwLDLsEADmfi/1CXaPzx9ZD6fHVbAcD8iQFZFAD14Ph3AxIU/QNOim78E8Yg/CnmBvm8gBsAf8tY/
lpc_rms=-26.93
pitch_keycenter=f#4
sample=Flute_trill_semitone_FF_F#4.opus
</region>

<region>
hikey=e6
hivel=127
lokey=d#6
lovel=1
lpc=ZjLsQXFkCsJTi8hBOCIBwcQGBcDsi5tBEE08wdlrTEFIQZtAtxjwv30mGUGo8II/Gc/JQCdZnEDO31FAg4yZQA8dWUBreWrB+EuUQdG0IcBc+nhAJTuiQDsXrMBczYVA
lpc_rms=-10.99
pitch_keycenter=e6
sample=Flute_trill_semitone_FF_E6.opus
</region>

<region>
hikey=e5
hivel=127
lokey=d#5
lovel=1
lpc=I0VcQS+B28HGrKVBJuKswLdTa8D8UQZBfOvQwCUXoj5sM+hARqkVwSg6zkCJVi7AxC8xP28N8z9YrWfAKLlwQCGfr78tMQo+Pcz7P2xRAMDqdFg9DUGLP2Kk7b/yThtA
lpc_rms=-22.61
pitch_keycenter=e5
sample=Flute_trill_semitone_FF_E5.opus
</region>

<region>
hikey=e4
hivel=127
lokey=d#4
lovel=1
lpc=02mJQRMyJsJl+Q9C70Vqwf3wcD8w8jlBT2dRwY29SkDbYpY/WtlgwCXxvUBhcGLA6Ua2PxDUE7853Lq+bPEGv8DXzD/n3fe/Iw8FQJ4dgr/uzVA+AyJ7v/FpoT9WXo++
lpc_rms=-25.86
pitch_keycenter=e4
sample=Flute_trill_semitone_FF_E4.opus
</region>

<region>
hikey=d6
hivel=127
lokey=c#6
lovel=1
lpc=wJOSQXKt1sEsgrxBXPgswWeHOD+JtCtBVFYHwUsJ/0Aw/RVAVauRwKTqFUEn+QfAx9MfQO1DU0CehfI8NIoTQHk0OEBVCSw/Ad66P8PcicCrVj5Ak+KCQK2cDsDRsS9A
lpc_rms=-16.37
pitch_keycenter=d6
sample=Flute_trill_semitone_FF_D6.opus
</region>

<region>
hikey=d5
hivel=127
lokey=c#5
lovel=1
lpc=psAtQVOmw8ET3KRBCrnUwD9vE8AcK+lAQIj4wOuWXkBMztU/iy9ewH1+ZEApr1TA9sr4PzLq4z7OmQ3AWvYRQPYxo78D6zc/OAOfP0WK+r/oO6Q/m4+vvcXr4L9W8No/
lpc_rms=-22.16
pitch_keycenter=d5
sample=Flute_trill_semitone_FF_D5.opus
</region>

<region>
hikey=d4
hivel=127
lokey=c#4
lovel=1
lpc=+6mGQQ11JcLzVB1CPyCswSwCy0DwNhFBmQA9wZ9qST/Q/7lAu0PpwKnz7UA4GHvA7hQAPxJjfL+y0Kc/CAsfPm0Xmr93HAVATKmrvrtn5L/Vl9Q/Xqrfv/XM9j9+YVe/
lpc_rms=-30.86
pitch_keycenter=d4
sample=Flute_trill_semitone_FF_D4.opus
</region>

<region>
hikey=c6
hivel=127
lokey=b5
lovel=1
lpc=bACHQShXxMGo93BBhUgUP/hj0MBxZBhBoXaAwGPULUAOryNAWmRjwPLav0A1QT3ASVyRQI/CQb2f2jm/cgFfQAKaab47RbE+DUQcQBp1lz6aipw+glrDwJXM1ED/76O+
lpc_rms=-17.99
pitch_keycenter=c6
sample=Flute_trill_semitone_FF_C6.opus
</region>

<region>
hikey=c5
hivel=127
lokey=b4
lovel=1
lpc=EQ5QQdPKA8ITcQVCRXqFwftxIEB/sdFAHxIgwc1ZokByChFAWLK4wCdE50BBQb/AnqTUP4GdxD+20BHA3fc0QLNVD8C8ERc/AvYvPwDffL8R6sk+mVfRP9xwIMCRE6A/
lpc_rms=-22.61
pitch_keycenter=c5
sample=Flute_trill_semitone_FF_C5.opus
</region>

<region>
hivel=127
key=c4
lovel=1
lpc=41FMQfBc78HFb+1BewaiwWfi8EDNOdxAI5ALwezCHkA9yyZAZHHxwK7370CZM0PApyy5vuAOK0D37SzA7txiP6EHHj/0yda/dH4QQLYKkr6rT1O/LNKuPgapfb9OSlk/
lpc_rms=-30.91
sample=Flute_trill_semitone_FF_C4.opus
</region>

<region>
hikey=a#5
hivel=127
lokey=a5
lovel=1
lpc=xVekQbaqHsK4WxJCgI2CwdDyPcAtE5VBzTeZwfFuD0EHv+o/JOeWwMX9A0Fno+TAMDYRQILqA0AYmrg/BUgEwFOEHUCMJmXAwMawQIgY0786Ip2/ew2oQNj92cCmgglA
lpc_rms=-17.74
pitch_keycenter=a#5
sample=Flute_trill_semitone_FF_A#5.opus
</region>

<region>
hikey=a#4
hivel=127
lokey=a4
lovel=1
lpc=yeLSQdbqjMLSe4VClP6bwQDVQ8EhV55BgwaLwRUOC0FJJpNAR2J9wd9sbEHpOfHA0v4AQY253sBpbaC/AyyuQBVwscBmOJlAo//8vimCecDsv3NAuTEeP8SEecDZehNA
lpc_rms=-18.21
pitch_keycenter=a#4
sample=Flute_trill_semitone_FF_A#4.opus
</region>
</group>